<?xml version="1.0" encoding="utf-8"?>
<!-- Generator: Adobe Illustrator 16.0.0, SVG Export Plug-In . SVG Version: 6.00 Build 0)  -->
<!DOCTYPE svg PUBLIC "-//W3C//DTD SVG 1.1//EN" "http://www.w3.org/Graphics/SVG/1.1/DTD/svg11.dtd">
<svg version="1.1" id="Layer_1" xmlns="http://www.w3.org/2000/svg" xmlns:xlink="http://www.w3.org/1999/xlink" x="0px" y="0px"
	 width="595.279px" height="841.89px" viewBox="0 0 595.279 841.89" enable-background="new 0 0 595.279 841.89"
	 xml:space="preserve">
<g id="Layer_x0020_1">
	<path fill="#202020" d="M297.64,298.172c-9.524,0-17.858,8.334-17.858,17.858s8.334,17.858,17.858,17.858
		s17.858-8.334,17.858-17.858S307.164,298.172,297.64,298.172z M401.219,686.301v26.191l-1.19,1.191l46.432,41.668
		c19.049,17.859,28.573,35.717,19.049,35.717h-52.385c-36.907-9.523-76.196-14.285-115.484-14.285s-78.577,4.762-115.484,14.285
		h-52.385c-9.524,0,0-17.857,19.049-35.717l46.433-41.668l-1.19-1.191v-26.191C127.39,650.584,79.768,582.721,75.005,502.953H191.68
		c7.144,52.386,51.194,92.864,105.96,92.864s98.816-40.479,105.96-92.864h116.675C515.513,582.721,467.89,650.584,401.219,686.301z
		 M297.64,464.853c-13.096,0-23.811,10.716-23.811,23.813s10.715,23.813,23.811,23.813s23.812-10.716,23.812-23.813
		S310.736,464.853,297.64,464.853z M297.64,413.657c-40.479,0-73.814,33.337-73.814,75.009c0,40.481,33.336,73.817,73.814,73.817
		c40.479,0,73.814-33.336,73.814-73.817C371.454,446.994,338.119,413.657,297.64,413.657z M297.64,264.836
		c-120.246,0-217.872,95.245-222.635,214.304H190.49c5.953-54.769,51.194-97.629,107.15-97.629s101.197,42.86,107.15,97.629h115.484
		C515.513,360.082,417.887,264.836,297.64,264.836z M297.64,443.421c-25.002,0-45.241,20.241-45.241,45.244
		s20.239,45.243,45.241,45.243s45.241-20.24,45.241-45.243S322.642,443.421,297.64,443.421z M297.64,482.712
		c-3.571,0-5.952,2.381-5.952,5.953s2.381,5.953,5.952,5.953s5.953-2.381,5.953-5.953S301.211,482.712,297.64,482.712z"/>
</g>
<polygon fill="#202020" points="297.64,210.899 183.405,210.899 297.64,50.055 411.872,210.899 "/>
</svg>
